<?xml version="1.0" encoding="utf-8"?>
<!-- Generator: Adobe Illustrator 20.0.0, SVG Export Plug-In . SVG Version: 6.00 Build 0)  -->
<svg version="1.1" id="Layer_1" xmlns="http://www.w3.org/2000/svg" xmlns:xlink="http://www.w3.org/1999/xlink" x="0px" y="0px"
	 viewBox="0 0 328 122" style="enable-background:new 0 0 328 122;" xml:space="preserve">
<style type="text/css">
	.st0{fill:#252069;}
	.st1{fill:#E42313;}
</style>
<g>
	<path class="st0" d="M101.7,87.6c-0.6,3.4-2.9,6.6-6.8,8c-6.8,2.4-17.7,0.8-26.8-3c8.2-7.8,13.5-18.7,15.1-23.8
		c-21.1,32.1-48.1,31.7-53.7,22c-4.6-7.9,1-20.7,13.8-27.4c2.1,7.4,6,15.3,12.1,23.4c-20.1-35-2.1-56.4,9.2-56.4
		C76.3,30.3,83,45.5,82.3,59c-9.5-2.9-20.1-3.7-30.5-1.2C93.2,56.7,103.8,76.3,101.7,87.6L101.7,87.6z M85.4,60.1
		C89,42.2,81.6,15,64.5,15c-12.6,0-27.9,19.3-22.1,45.2c-18.7,6.9-35,23.5-27.5,38.1c5.6,10.9,30.7,12.4,49.8-2.8
		c12.1,10.9,40.9,17.2,49.5,2.2C121.3,85.3,106.7,67.7,85.4,60.1"/>
	<path class="st0" d="M143.2,22.7l-0.1,2.7c-0.9-0.4-1.7-0.6-2.5-0.8c-0.8-0.2-1.7-0.3-2.5-0.3c-2.7,0-4.8,0.8-6.4,2.3
		c-1.6,1.6-2.4,3.7-2.4,6.3c0,2.7,0.8,4.8,2.4,6.3c1.6,1.5,3.7,2.3,6.4,2.3c0.9,0,1.7-0.1,2.5-0.2c0.8-0.2,1.6-0.4,2.4-0.7l0.1,2.8
		c-0.8,0.2-1.6,0.4-2.5,0.6c-0.9,0.1-1.8,0.2-2.8,0.2c-3.6,0-6.5-1-8.6-3c-2.1-2-3.2-4.7-3.2-8.1c0-3.5,1.1-6.2,3.2-8.3
		c2.1-2,5-3.1,8.6-3.1c1,0,1.9,0.1,2.8,0.2C141.6,22.2,142.4,22.4,143.2,22.7"/>
	<path class="st0" d="M153.9,36.2c-1.8,0-3.1,0.3-4,0.9c-0.9,0.6-1.4,1.4-1.4,2.4c0,0.8,0.3,1.5,0.8,2c0.5,0.5,1.2,0.8,2.1,0.8
		c1.3,0,2.4-0.4,3.2-1.3c0.8-0.9,1.2-2.1,1.2-3.5v-1.2H153.9L153.9,36.2z M158.8,34.4v9.8H156v-2.6c-0.6,1-1.4,1.7-2.3,2.2
		c-0.9,0.5-2,0.7-3.2,0.7c-1.5,0-2.7-0.4-3.7-1.3c-0.9-0.9-1.4-2-1.4-3.4c0-1.8,0.7-3.1,2.1-4c1.4-0.9,3.5-1.4,6.1-1.4h2.1v-0.3
		c0-1.3-0.3-2.2-1-2.9c-0.7-0.7-1.7-1.1-2.9-1.1c-0.7,0-1.4,0.1-2.2,0.3c-0.7,0.2-1.5,0.6-2.3,1l0-2.4c0.8-0.4,1.7-0.7,2.5-0.9
		c0.9-0.2,1.8-0.3,2.9-0.3c2,0,3.5,0.6,4.5,1.7C158.3,30.4,158.8,32.1,158.8,34.4"/>
	<path class="st0" d="M177.1,34.4v9.7h-3v-9.1c0-1.7-0.3-2.9-0.9-3.7c-0.6-0.8-1.5-1.2-2.7-1.2c-1.3,0-2.4,0.5-3.1,1.5
		c-0.8,1-1.1,2.4-1.1,4.2v8.2h-3V28h2.7v3c0.6-1.1,1.4-2,2.3-2.5c0.9-0.6,2-0.8,3.3-0.8c1.8,0,3.2,0.6,4.1,1.7
		C176.7,30.5,177.1,32.2,177.1,34.4"/>
	<path class="st0" d="M185.7,23.1V28h3.9v2.3h-3.9v8.4c0,1.3,0.2,2.2,0.6,2.7c0.4,0.5,1,0.8,1.8,0.8c0.2,0,0.4,0,0.7-0.1
		c0.3-0.1,0.6-0.1,0.9-0.3l0,2.4c-0.4,0.1-0.8,0.2-1.2,0.2c-0.4,0.1-0.8,0.1-1.2,0.1c-1.6,0-2.8-0.4-3.5-1.3
		c-0.7-0.8-1.1-2.3-1.1-4.2v-8.7h-3.3V28h3.3v-3.9L185.7,23.1"/>
	<path class="st0" d="M202.9,34.8c-0.1-1.6-0.5-2.8-1.2-3.7c-0.7-0.9-1.7-1.3-2.9-1.3c-1.2,0-2.2,0.4-3,1.3
		c-0.8,0.9-1.3,2.1-1.4,3.6H202.9L202.9,34.8z M205.7,35.5v1.2h-11.5c0.1,1.7,0.7,3.1,1.7,4c1,1,2.3,1.4,4,1.4
		c0.7,0,1.5-0.1,2.2-0.3c0.7-0.2,1.5-0.5,2.3-0.9v2.6c-0.7,0.3-1.5,0.5-2.3,0.7c-0.8,0.2-1.8,0.2-2.8,0.2c-2.4,0-4.4-0.8-5.8-2.3
		c-1.4-1.5-2.1-3.6-2.1-6.3c0-2.5,0.7-4.5,2.1-6c1.4-1.5,3.2-2.3,5.4-2.3c2.1,0,3.8,0.7,5,2.1C205.1,31.2,205.7,33.1,205.7,35.5"/>
	<path class="st0" d="M217.6,27.9l-0.1,2.8c-0.2-0.1-0.5-0.1-0.7-0.1c-0.2,0-0.4,0-0.6,0c-1.4,0-2.4,0.5-3.2,1.4
		c-0.7,1-1.1,2.3-1.1,4.1v8.1h-3V28h2.7v3.3c0.4-1.2,1.1-2,1.9-2.7c0.8-0.6,1.7-0.9,2.8-0.9c0.2,0,0.4,0,0.6,0
		C217.2,27.8,217.4,27.8,217.6,27.9"/>
	<path class="st0" d="M227.9,30c-1.4,0-2.5,0.5-3.4,1.6c-0.8,1.1-1.2,2.5-1.2,4.4c0,1.8,0.4,3.3,1.2,4.4c0.8,1.1,1.9,1.6,3.3,1.6
		c1.3,0,2.4-0.5,3.1-1.6c0.8-1.1,1.2-2.5,1.2-4.3c0-1.9-0.4-3.4-1.1-4.5C230.2,30.6,229.1,30,227.9,30L227.9,30z M220.3,20.1h3v10.5
		c0.6-1,1.3-1.7,2.2-2.2c0.9-0.5,1.9-0.7,3.1-0.7c2,0,3.6,0.7,4.8,2.2c1.2,1.5,1.8,3.5,1.8,5.9c0,2.5-0.6,4.6-1.8,6.2
		c-1.2,1.6-2.8,2.4-4.8,2.4c-1.2,0-2.3-0.3-3.3-0.9c-0.9-0.6-1.7-1.5-2.3-2.6v3.2h-2.7V20.1"/>
	<path class="st0" d="M238.7,28h3v9c0,1.7,0.3,2.9,0.9,3.7c0.6,0.8,1.5,1.2,2.7,1.2c1.4,0,2.4-0.5,3.2-1.6c0.7-1.1,1.1-2.7,1.1-4.7
		V28h3v16.1h-2.7v-3.1c-0.6,1.1-1.3,2-2.3,2.5c-0.9,0.5-2,0.8-3.3,0.8c-1.8,0-3.2-0.6-4.1-1.7c-0.9-1.1-1.4-2.8-1.4-5V28"/>
	<path class="st0" d="M265.9,27.9l-0.1,2.8c-0.2-0.1-0.5-0.1-0.7-0.1c-0.2,0-0.4,0-0.6,0c-1.4,0-2.4,0.5-3.2,1.4
		c-0.7,1-1.1,2.3-1.1,4.1v8.1h-3V28h2.7v3.3c0.4-1.2,1.1-2,1.9-2.7c0.8-0.6,1.7-0.9,2.8-0.9c0.2,0,0.4,0,0.6,0
		C265.4,27.8,265.6,27.8,265.9,27.9"/>
	<path class="st0" d="M267.4,28h3.2l4.4,13.2l4.3-13.2h3L276,45.8c-0.7,2-1.5,3.4-2.3,4.2c-0.9,0.8-2,1.2-3.4,1.2
		c-0.3,0-0.6,0-1-0.1c-0.3,0-0.7-0.1-1-0.2l0.3-2.5c0.3,0.1,0.5,0.1,0.7,0.2c0.2,0,0.5,0,0.7,0c0.7,0,1.4-0.3,1.9-0.9
		c0.5-0.6,1.1-1.6,1.6-3L267.4,28"/>
	<path class="st0" d="M143.2,51.6l-0.1,2.7c-0.9-0.4-1.7-0.6-2.5-0.8c-0.8-0.2-1.7-0.3-2.5-0.3c-2.7,0-4.8,0.8-6.4,2.3
		c-1.6,1.6-2.4,3.7-2.4,6.3c0,2.7,0.8,4.8,2.4,6.3c1.6,1.5,3.7,2.3,6.4,2.3c0.9,0,1.7-0.1,2.5-0.2c0.8-0.2,1.6-0.4,2.4-0.7l0.1,2.8
		c-0.8,0.2-1.6,0.4-2.5,0.6c-0.9,0.1-1.8,0.2-2.8,0.2c-3.6,0-6.5-1-8.6-3c-2.1-2-3.2-4.7-3.2-8.1c0-3.5,1.1-6.2,3.2-8.3
		c2.1-2,5-3.1,8.6-3.1c1,0,1.9,0.1,2.8,0.2C141.6,51.1,142.4,51.3,143.2,51.6"/>
	<path class="st0" d="M146.2,49h3v10.5c0.6-1,1.3-1.7,2.2-2.2c0.9-0.5,2-0.8,3.2-0.8c1.8,0,3.2,0.6,4.1,1.7c0.9,1.1,1.4,2.8,1.4,5
		V73h-3V64c0-1.7-0.3-2.9-0.9-3.7c-0.6-0.8-1.5-1.2-2.7-1.2c-1.3,0-2.4,0.5-3.1,1.5c-0.8,1-1.1,2.4-1.1,4.2V73h-3V49"/>
	<path class="st0" d="M173.2,56.7l-0.1,2.8c-0.2-0.1-0.5-0.1-0.7-0.1c-0.2,0-0.4,0-0.6,0c-1.4,0-2.4,0.5-3.2,1.4
		c-0.7,1-1.1,2.3-1.1,4.1V73h-3V56.9h2.7v3.3c0.4-1.2,1.1-2,1.9-2.7c0.8-0.6,1.7-0.9,2.8-0.9c0.2,0,0.4,0,0.6,0
		C172.7,56.7,172.9,56.7,173.2,56.7"/>
	<path class="st0" d="M175.7,56.9h3V73h-3V56.9L175.7,56.9z M175.7,49.5h3v3h-3V49.5"/>
	<path class="st0" d="M192.4,57.3l-0.1,2.4c-0.6-0.3-1.3-0.5-2-0.7c-0.7-0.2-1.4-0.2-2.1-0.2c-0.8,0-1.5,0.2-2,0.5
		c-0.5,0.3-0.7,0.8-0.7,1.3c0,0.5,0.2,0.9,0.6,1.3c0.4,0.4,1.2,0.9,2.5,1.5c1.7,0.8,2.9,1.5,3.5,2.3c0.6,0.7,1,1.6,1,2.7
		c0,1.5-0.6,2.6-1.8,3.5c-1.2,0.9-2.8,1.3-4.8,1.3c-0.7,0-1.5-0.1-2.2-0.2c-0.7-0.1-1.4-0.3-2.1-0.6l0.1-2.5
		c0.7,0.4,1.5,0.7,2.2,0.8c0.7,0.2,1.4,0.3,2.1,0.3c1,0,1.8-0.2,2.4-0.6c0.6-0.4,0.9-1,0.9-1.7c0-0.5-0.2-1-0.5-1.4
		c-0.3-0.4-1.2-0.9-2.4-1.5c-1.7-0.8-2.9-1.6-3.5-2.3c-0.6-0.7-0.9-1.5-0.9-2.5c0-1.3,0.5-2.3,1.6-3.1c1.1-0.8,2.5-1.2,4.3-1.2
		c0.6,0,1.3,0,2,0.1C191,57,191.7,57.1,192.4,57.3"/>
	<path class="st0" d="M201.1,52v4.9h3.9v2.3h-3.9v8.4c0,1.3,0.2,2.2,0.6,2.7c0.4,0.5,1,0.8,1.8,0.8c0.2,0,0.4,0,0.7-0.1
		c0.3-0.1,0.6-0.1,0.9-0.3l0,2.4c-0.4,0.1-0.8,0.2-1.2,0.2c-0.4,0.1-0.8,0.1-1.2,0.1c-1.6,0-2.8-0.4-3.5-1.3
		c-0.7-0.8-1.1-2.3-1.1-4.2v-8.7h-3.2v-2.3h3.3V53L201.1,52"/>
	<path class="st0" d="M233.9,51.6l-0.1,2.7c-0.9-0.4-1.7-0.6-2.5-0.8c-0.8-0.2-1.7-0.3-2.5-0.3c-2.7,0-4.8,0.8-6.4,2.3
		c-1.6,1.6-2.4,3.7-2.4,6.3c0,2.7,0.8,4.8,2.4,6.3c1.6,1.5,3.7,2.3,6.4,2.3c0.9,0,1.7-0.1,2.5-0.2c0.8-0.2,1.6-0.4,2.4-0.7l0.1,2.8
		c-0.8,0.2-1.6,0.4-2.5,0.6c-0.9,0.1-1.8,0.2-2.8,0.2c-3.6,0-6.5-1-8.6-3c-2.1-2-3.2-4.7-3.2-8.1c0-3.5,1.1-6.2,3.2-8.3
		c2.1-2,5-3.1,8.6-3.1c1,0,1.9,0.1,2.8,0.2C232.3,51.1,233.1,51.3,233.9,51.6"/>
	<path class="st0" d="M236.9,49h3v10.5c0.6-1,1.3-1.7,2.2-2.2c0.9-0.5,1.9-0.8,3.2-0.8c1.8,0,3.2,0.6,4.1,1.7c0.9,1.1,1.4,2.8,1.4,5
		V73h-3V64c0-1.7-0.3-2.9-0.9-3.7c-0.6-0.8-1.5-1.2-2.7-1.2c-1.3,0-2.4,0.5-3.1,1.5c-0.8,1-1.1,2.4-1.1,4.2V73h-3V49"/>
	<path class="st0" d="M254.9,56.9h3v9c0,1.7,0.3,2.9,0.9,3.7c0.6,0.8,1.5,1.2,2.7,1.2c1.4,0,2.4-0.5,3.2-1.6
		c0.7-1.1,1.1-2.7,1.1-4.7v-7.5h3V73H266v-3.1c-0.6,1.1-1.3,2-2.3,2.5c-0.9,0.5-2,0.8-3.3,0.8c-1.8,0-3.2-0.6-4.1-1.7
		c-0.9-1.1-1.4-2.8-1.4-5V56.9"/>
	<path class="st0" d="M282,56.7l-0.1,2.8c-0.2-0.1-0.5-0.1-0.7-0.1c-0.2,0-0.4,0-0.6,0c-1.4,0-2.4,0.5-3.2,1.4
		c-0.7,1-1.1,2.3-1.1,4.1V73h-3V56.9h2.7v3.3c0.5-1.2,1.1-2,1.9-2.7c0.8-0.6,1.7-0.9,2.8-0.9c0.2,0,0.4,0,0.6,0
		C281.6,56.7,281.8,56.7,282,56.7"/>
	<path class="st0" d="M295.8,57.4l-0.2,2.6c-0.5-0.3-1-0.5-1.6-0.6c-0.6-0.2-1.2-0.2-1.9-0.2c-1.7,0-3,0.5-4,1.6
		c-1,1.1-1.5,2.5-1.5,4.2c0,1.8,0.5,3.2,1.5,4.2c1,1.1,2.3,1.6,4,1.6c0.6,0,1.2-0.1,1.8-0.2c0.6-0.2,1.2-0.4,1.9-0.7l0.2,2.6
		c-0.7,0.2-1.4,0.4-2.1,0.6c-0.7,0.1-1.5,0.2-2.2,0.2c-2.5,0-4.4-0.8-5.9-2.3c-1.5-1.5-2.2-3.5-2.2-6c0-2.5,0.8-4.5,2.3-6
		c1.5-1.5,3.6-2.3,6.1-2.3c0.7,0,1.4,0.1,2.1,0.2C294.6,57,295.2,57.2,295.8,57.4"/>
	<path class="st0" d="M298.9,49h3v10.5c0.6-1,1.3-1.7,2.2-2.2c0.9-0.5,1.9-0.8,3.2-0.8c1.8,0,3.2,0.6,4.1,1.7c0.9,1.1,1.4,2.8,1.4,5
		V73h-3V64c0-1.7-0.3-2.9-0.9-3.7c-0.6-0.8-1.5-1.2-2.7-1.2c-1.3,0-2.4,0.5-3.1,1.5c-0.8,1-1.1,2.4-1.1,4.2V73h-3V49"/>
	<path class="st1" d="M127.2,79.7h2.1v13.1c0,2.6,0.5,4.5,1.5,5.7c1,1.3,2.4,1.9,4.4,1.9c2,0,3.5-0.7,4.5-2c1-1.4,1.5-3.3,1.5-6
		V79.7h1.9v12.9c0,3.3-0.7,5.7-2,7.3c-1.3,1.6-3.3,2.4-6,2.4c-2.6,0-4.5-0.8-5.8-2.4c-1.3-1.6-2-3.9-2-7V79.7"/>
	<path class="st1" d="M160.8,92.1v9.8h-2v-9.3c0-1.8-0.3-3.1-0.9-4s-1.6-1.3-2.9-1.3c-1.5,0-2.6,0.5-3.5,1.6
		c-0.8,1.1-1.3,2.6-1.3,4.6v8.3h-2v-16h1.8v3c0.6-1.1,1.3-2,2.2-2.5c0.9-0.6,2-0.8,3.2-0.8c1.7,0,3,0.6,4,1.7
		C160.3,88.4,160.8,90,160.8,92.1"/>
	<path class="st1" d="M165.3,85.9h2v16h-2V85.9L165.3,85.9z M165.1,78.4h2.3V81h-2.3V78.4"/>
	<polyline class="st1" points="170.1,85.9 172.3,85.9 176.8,100.1 181.5,85.9 183.4,85.9 177.9,101.9 175.5,101.9 170.1,85.9 	"/>
	<path class="st1" d="M196,92.8c-0.1-1.8-0.6-3.2-1.3-4.1c-0.8-1-1.8-1.4-3.2-1.4c-1.3,0-2.4,0.5-3.3,1.5c-0.9,1-1.4,2.4-1.5,4.1
		H196L196,92.8z M197.9,93.1v1.2h-11.3c0.1,2,0.6,3.6,1.6,4.6c1,1.1,2.4,1.6,4.2,1.6c0.7,0,1.4-0.1,2.1-0.3c0.7-0.2,1.4-0.5,2.2-0.9
		v2c-0.7,0.3-1.4,0.5-2.2,0.7c-0.7,0.2-1.5,0.2-2.3,0.2c-2.4,0-4.2-0.7-5.5-2.2c-1.3-1.5-2-3.6-2-6.2c0-2.5,0.6-4.5,1.9-6
		c1.3-1.5,3-2.3,5.1-2.3c1.9,0,3.4,0.7,4.5,2C197.4,88.9,197.9,90.8,197.9,93.1"/>
	<path class="st1" d="M208.8,85.8v2.1c-0.2-0.1-0.4-0.1-0.6-0.1c-0.2,0-0.3,0-0.5,0c-1.4,0-2.4,0.5-3.2,1.5c-0.8,1-1.1,2.4-1.1,4.2
		v8.5h-2v-16h1.8v3.4c0.4-1.1,1-2,1.8-2.7c0.8-0.6,1.7-0.9,2.8-0.9c0.1,0,0.3,0,0.5,0C208.4,85.8,208.6,85.8,208.8,85.8"/>
	<path class="st1" d="M220.2,86.3v1.9c-0.6-0.3-1.2-0.5-1.8-0.6c-0.6-0.1-1.3-0.2-1.9-0.2c-1,0-1.8,0.2-2.4,0.6
		c-0.6,0.4-0.9,1-0.9,1.7c0,1,1,1.9,3.1,2.8c0.2,0.1,0.4,0.2,0.5,0.2c1.6,0.8,2.8,1.5,3.4,2.2c0.6,0.7,0.9,1.6,0.9,2.6
		c0,1.4-0.5,2.5-1.6,3.4c-1.1,0.8-2.5,1.2-4.3,1.2c-0.8,0-1.5-0.1-2.2-0.2c-0.7-0.1-1.4-0.3-2-0.6v-1.9c0.7,0.3,1.4,0.6,2,0.8
		c0.7,0.2,1.4,0.3,2,0.3c1.1,0,2.1-0.3,2.8-0.8c0.7-0.5,1.1-1.2,1.1-2c0-0.7-0.2-1.3-0.6-1.7c-0.4-0.5-1.4-1.1-3.1-1.9
		c-1.6-0.8-2.7-1.5-3.3-2.1c-0.6-0.6-0.8-1.4-0.8-2.3c0-1.2,0.5-2.1,1.4-2.8c1-0.7,2.2-1.1,3.8-1.1c0.7,0,1.4,0,2.1,0.1
		C219,85.9,219.6,86.1,220.2,86.3"/>
	<path class="st1" d="M224.1,85.9h2v16h-2V85.9L224.1,85.9z M223.9,78.4h2.3V81h-2.3V78.4"/>
	<path class="st1" d="M234.4,81.2v4.8h3.8v1.6h-3.8v9.4c0,1.3,0.2,2.2,0.5,2.7c0.3,0.5,0.9,0.8,1.8,0.8c0.3,0,0.5,0,0.8-0.1
		c0.3-0.1,0.6-0.1,0.8-0.3v1.8c-0.3,0.1-0.7,0.2-1,0.2c-0.3,0-0.7,0.1-1,0.1c-1.4,0-2.4-0.4-3-1.1c-0.6-0.7-0.9-2-0.9-3.8v-9.7h-3.3
		v-1.6h3.3v-4L234.4,81.2"/>
	<path class="st1" d="M240.1,85.9h2.1l4.6,13.9l4.7-13.9h2l-6.4,18.4c-0.6,1.6-1.2,2.8-1.9,3.5c-0.7,0.7-1.6,1.1-2.7,1.1
		c-0.2,0-0.5,0-0.8,0c-0.3,0-0.6-0.1-0.8-0.1l0.2-1.8c0,0,0,0,0.1,0c0.7,0.1,1.1,0.2,1.2,0.2c0.8,0,1.4-0.3,1.9-1
		c0.5-0.6,1.1-1.8,1.6-3.5L240.1,85.9"/>
</g>
</svg>
